<mxfile host="app.diagrams.net" agent="Mozilla/5.0 (Windows NT 10.0; Win64; x64) AppleWebKit/537.36 (KHTML, like Gecko) Chrome/131.0.0.0 Safari/537.36" version="25.0.1">
  <diagram name="第 1 页" id="s255MDiugziPjuRfIauH">
    <mxGraphModel dx="1434" dy="772" grid="1" gridSize="10" guides="1" tooltips="1" connect="1" arrows="1" fold="1" page="1" pageScale="1" pageWidth="1654" pageHeight="1169" math="0" shadow="0">
      <root>
        <mxCell id="0" />
        <mxCell id="1" parent="0" />
        <mxCell id="JbyCYwr8BGmZyS5Jvpdc-5" value="" style="edgeStyle=orthogonalEdgeStyle;rounded=0;orthogonalLoop=1;jettySize=auto;html=1;" parent="1" source="JbyCYwr8BGmZyS5Jvpdc-1" target="JbyCYwr8BGmZyS5Jvpdc-4" edge="1">
          <mxGeometry relative="1" as="geometry" />
        </mxCell>
        <mxCell id="JbyCYwr8BGmZyS5Jvpdc-1" value="&lt;font&gt;开始&lt;/font&gt;&lt;div&gt;&lt;font&gt;商标查询接口&lt;/font&gt;&lt;/div&gt;" style="rounded=1;whiteSpace=wrap;html=1;" parent="1" vertex="1">
          <mxGeometry x="600" y="120" width="120" height="60" as="geometry" />
        </mxCell>
        <mxCell id="onJ9jWcFODIxRkG4GBCm-2" value="" style="edgeStyle=orthogonalEdgeStyle;rounded=0;orthogonalLoop=1;jettySize=auto;html=1;" edge="1" parent="1" source="JbyCYwr8BGmZyS5Jvpdc-4" target="onJ9jWcFODIxRkG4GBCm-1">
          <mxGeometry relative="1" as="geometry" />
        </mxCell>
        <mxCell id="JbyCYwr8BGmZyS5Jvpdc-4" value="&lt;font&gt;传入标签明码&lt;/font&gt;" style="whiteSpace=wrap;html=1;rounded=0;" parent="1" vertex="1">
          <mxGeometry x="600" y="230" width="120" height="60" as="geometry" />
        </mxCell>
        <mxCell id="onJ9jWcFODIxRkG4GBCm-6" value="" style="edgeStyle=orthogonalEdgeStyle;rounded=0;orthogonalLoop=1;jettySize=auto;html=1;" edge="1" parent="1" source="onJ9jWcFODIxRkG4GBCm-1" target="onJ9jWcFODIxRkG4GBCm-5">
          <mxGeometry relative="1" as="geometry" />
        </mxCell>
        <mxCell id="onJ9jWcFODIxRkG4GBCm-8" value="" style="edgeStyle=orthogonalEdgeStyle;rounded=0;orthogonalLoop=1;jettySize=auto;html=1;entryX=1;entryY=0.5;entryDx=0;entryDy=0;" edge="1" parent="1" source="onJ9jWcFODIxRkG4GBCm-1" target="onJ9jWcFODIxRkG4GBCm-61">
          <mxGeometry relative="1" as="geometry">
            <mxPoint x="760" y="370" as="targetPoint" />
            <Array as="points">
              <mxPoint x="1180" y="370" />
              <mxPoint x="1180" y="1460" />
            </Array>
          </mxGeometry>
        </mxCell>
        <mxCell id="onJ9jWcFODIxRkG4GBCm-1" value="&lt;font&gt;入参中是否存在标签明码&lt;/font&gt;" style="rhombus;whiteSpace=wrap;html=1;rounded=0;" vertex="1" parent="1">
          <mxGeometry x="620" y="330" width="80" height="80" as="geometry" />
        </mxCell>
        <mxCell id="onJ9jWcFODIxRkG4GBCm-12" value="" style="edgeStyle=orthogonalEdgeStyle;rounded=0;orthogonalLoop=1;jettySize=auto;html=1;exitX=0.5;exitY=1;exitDx=0;exitDy=0;" edge="1" parent="1" source="onJ9jWcFODIxRkG4GBCm-30" target="onJ9jWcFODIxRkG4GBCm-11">
          <mxGeometry relative="1" as="geometry" />
        </mxCell>
        <mxCell id="onJ9jWcFODIxRkG4GBCm-14" value="" style="edgeStyle=orthogonalEdgeStyle;rounded=0;orthogonalLoop=1;jettySize=auto;html=1;entryX=1;entryY=0.5;entryDx=0;entryDy=0;" edge="1" parent="1" source="onJ9jWcFODIxRkG4GBCm-5" target="onJ9jWcFODIxRkG4GBCm-61">
          <mxGeometry relative="1" as="geometry">
            <mxPoint x="760" y="490" as="targetPoint" />
            <Array as="points">
              <mxPoint x="1080" y="490" />
              <mxPoint x="1080" y="1460" />
            </Array>
          </mxGeometry>
        </mxCell>
        <mxCell id="onJ9jWcFODIxRkG4GBCm-31" value="" style="edgeStyle=orthogonalEdgeStyle;rounded=0;orthogonalLoop=1;jettySize=auto;html=1;" edge="1" parent="1" source="onJ9jWcFODIxRkG4GBCm-5" target="onJ9jWcFODIxRkG4GBCm-30">
          <mxGeometry relative="1" as="geometry" />
        </mxCell>
        <mxCell id="onJ9jWcFODIxRkG4GBCm-5" value="&lt;font&gt;生产库是否存在该标签明码&lt;/font&gt;" style="rhombus;whiteSpace=wrap;html=1;rounded=0;" vertex="1" parent="1">
          <mxGeometry x="620" y="450" width="80" height="80" as="geometry" />
        </mxCell>
        <mxCell id="onJ9jWcFODIxRkG4GBCm-9" value="no" style="text;html=1;align=center;verticalAlign=middle;resizable=0;points=[];autosize=1;strokeColor=none;fillColor=none;" vertex="1" parent="1">
          <mxGeometry x="700" y="338" width="40" height="30" as="geometry" />
        </mxCell>
        <mxCell id="onJ9jWcFODIxRkG4GBCm-10" value="yes" style="text;html=1;align=center;verticalAlign=middle;resizable=0;points=[];autosize=1;strokeColor=none;fillColor=none;" vertex="1" parent="1">
          <mxGeometry x="660" y="408" width="40" height="30" as="geometry" />
        </mxCell>
        <mxCell id="onJ9jWcFODIxRkG4GBCm-33" value="" style="edgeStyle=orthogonalEdgeStyle;rounded=0;orthogonalLoop=1;jettySize=auto;html=1;" edge="1" parent="1" source="onJ9jWcFODIxRkG4GBCm-11" target="onJ9jWcFODIxRkG4GBCm-32">
          <mxGeometry relative="1" as="geometry" />
        </mxCell>
        <mxCell id="onJ9jWcFODIxRkG4GBCm-65" style="edgeStyle=orthogonalEdgeStyle;rounded=0;orthogonalLoop=1;jettySize=auto;html=1;entryX=0.5;entryY=0;entryDx=0;entryDy=0;" edge="1" parent="1" source="onJ9jWcFODIxRkG4GBCm-11" target="onJ9jWcFODIxRkG4GBCm-44">
          <mxGeometry relative="1" as="geometry" />
        </mxCell>
        <mxCell id="onJ9jWcFODIxRkG4GBCm-11" value="该索引是否发货给客户" style="rhombus;whiteSpace=wrap;html=1;rounded=0;" vertex="1" parent="1">
          <mxGeometry x="620" y="680" width="80" height="80" as="geometry" />
        </mxCell>
        <mxCell id="onJ9jWcFODIxRkG4GBCm-15" value="no" style="text;html=1;align=center;verticalAlign=middle;resizable=0;points=[];autosize=1;strokeColor=none;fillColor=none;" vertex="1" parent="1">
          <mxGeometry x="700" y="468" width="40" height="30" as="geometry" />
        </mxCell>
        <mxCell id="onJ9jWcFODIxRkG4GBCm-16" value="yes" style="text;html=1;align=center;verticalAlign=middle;resizable=0;points=[];autosize=1;strokeColor=none;fillColor=none;" vertex="1" parent="1">
          <mxGeometry x="660" y="530" width="40" height="30" as="geometry" />
        </mxCell>
        <mxCell id="onJ9jWcFODIxRkG4GBCm-30" value="通过标签明码解析出客户code" style="whiteSpace=wrap;html=1;rounded=0;" vertex="1" parent="1">
          <mxGeometry x="600" y="570" width="120" height="60" as="geometry" />
        </mxCell>
        <mxCell id="onJ9jWcFODIxRkG4GBCm-36" value="" style="edgeStyle=orthogonalEdgeStyle;rounded=0;orthogonalLoop=1;jettySize=auto;html=1;" edge="1" parent="1" source="onJ9jWcFODIxRkG4GBCm-32" target="onJ9jWcFODIxRkG4GBCm-35">
          <mxGeometry relative="1" as="geometry" />
        </mxCell>
        <mxCell id="onJ9jWcFODIxRkG4GBCm-39" value="" style="edgeStyle=orthogonalEdgeStyle;rounded=0;orthogonalLoop=1;jettySize=auto;html=1;" edge="1" parent="1" source="onJ9jWcFODIxRkG4GBCm-32" target="onJ9jWcFODIxRkG4GBCm-38">
          <mxGeometry relative="1" as="geometry" />
        </mxCell>
        <mxCell id="onJ9jWcFODIxRkG4GBCm-32" value="&lt;span style=&quot;text-wrap-mode: nowrap;&quot;&gt;是否包码启用&lt;/span&gt;" style="rhombus;whiteSpace=wrap;html=1;rounded=0;" vertex="1" parent="1">
          <mxGeometry x="620" y="800" width="80" height="80" as="geometry" />
        </mxCell>
        <mxCell id="onJ9jWcFODIxRkG4GBCm-34" value="yes" style="text;html=1;align=center;verticalAlign=middle;resizable=0;points=[];autosize=1;strokeColor=none;fillColor=none;" vertex="1" parent="1">
          <mxGeometry x="660" y="760" width="40" height="30" as="geometry" />
        </mxCell>
        <mxCell id="onJ9jWcFODIxRkG4GBCm-42" value="" style="edgeStyle=orthogonalEdgeStyle;rounded=0;orthogonalLoop=1;jettySize=auto;html=1;entryX=0.5;entryY=0;entryDx=0;entryDy=0;exitX=0.5;exitY=1;exitDx=0;exitDy=0;" edge="1" parent="1" source="onJ9jWcFODIxRkG4GBCm-35" target="onJ9jWcFODIxRkG4GBCm-38">
          <mxGeometry relative="1" as="geometry">
            <mxPoint x="820" y="960" as="targetPoint" />
            <Array as="points">
              <mxPoint x="820" y="930" />
            </Array>
          </mxGeometry>
        </mxCell>
        <mxCell id="onJ9jWcFODIxRkG4GBCm-45" value="" style="edgeStyle=orthogonalEdgeStyle;rounded=0;orthogonalLoop=1;jettySize=auto;html=1;" edge="1" parent="1" source="onJ9jWcFODIxRkG4GBCm-35" target="onJ9jWcFODIxRkG4GBCm-44">
          <mxGeometry relative="1" as="geometry" />
        </mxCell>
        <mxCell id="onJ9jWcFODIxRkG4GBCm-35" value="&lt;span style=&quot;text-wrap-mode: nowrap;&quot;&gt;是否索引启用&lt;/span&gt;" style="rhombus;whiteSpace=wrap;html=1;rounded=0;" vertex="1" parent="1">
          <mxGeometry x="780" y="800" width="80" height="80" as="geometry" />
        </mxCell>
        <mxCell id="onJ9jWcFODIxRkG4GBCm-37" value="no" style="text;html=1;align=center;verticalAlign=middle;resizable=0;points=[];autosize=1;strokeColor=none;fillColor=none;" vertex="1" parent="1">
          <mxGeometry x="710" y="808" width="40" height="30" as="geometry" />
        </mxCell>
        <mxCell id="onJ9jWcFODIxRkG4GBCm-48" value="" style="edgeStyle=orthogonalEdgeStyle;rounded=0;orthogonalLoop=1;jettySize=auto;html=1;" edge="1" parent="1" source="onJ9jWcFODIxRkG4GBCm-38" target="onJ9jWcFODIxRkG4GBCm-47">
          <mxGeometry relative="1" as="geometry" />
        </mxCell>
        <mxCell id="onJ9jWcFODIxRkG4GBCm-50" value="" style="edgeStyle=orthogonalEdgeStyle;rounded=0;orthogonalLoop=1;jettySize=auto;html=1;" edge="1" parent="1" source="onJ9jWcFODIxRkG4GBCm-38" target="onJ9jWcFODIxRkG4GBCm-49">
          <mxGeometry relative="1" as="geometry" />
        </mxCell>
        <mxCell id="onJ9jWcFODIxRkG4GBCm-52" value="" style="edgeStyle=orthogonalEdgeStyle;rounded=0;orthogonalLoop=1;jettySize=auto;html=1;" edge="1" parent="1" source="onJ9jWcFODIxRkG4GBCm-38" target="onJ9jWcFODIxRkG4GBCm-51">
          <mxGeometry relative="1" as="geometry" />
        </mxCell>
        <mxCell id="onJ9jWcFODIxRkG4GBCm-38" value="&lt;span style=&quot;text-wrap-mode: nowrap;&quot;&gt;[客户类型]&lt;/span&gt;" style="rhombus;whiteSpace=wrap;html=1;rounded=0;" vertex="1" parent="1">
          <mxGeometry x="620" y="930" width="80" height="80" as="geometry" />
        </mxCell>
        <mxCell id="onJ9jWcFODIxRkG4GBCm-40" value="yes" style="text;html=1;align=center;verticalAlign=middle;resizable=0;points=[];autosize=1;strokeColor=none;fillColor=none;" vertex="1" parent="1">
          <mxGeometry x="660" y="890" width="40" height="30" as="geometry" />
        </mxCell>
        <mxCell id="onJ9jWcFODIxRkG4GBCm-43" value="yes" style="text;html=1;align=center;verticalAlign=middle;resizable=0;points=[];autosize=1;strokeColor=none;fillColor=none;" vertex="1" parent="1">
          <mxGeometry x="780" y="900" width="40" height="30" as="geometry" />
        </mxCell>
        <mxCell id="onJ9jWcFODIxRkG4GBCm-64" style="edgeStyle=orthogonalEdgeStyle;rounded=0;orthogonalLoop=1;jettySize=auto;html=1;entryX=1;entryY=0.5;entryDx=0;entryDy=0;exitX=0.5;exitY=1;exitDx=0;exitDy=0;" edge="1" parent="1" source="onJ9jWcFODIxRkG4GBCm-44" target="onJ9jWcFODIxRkG4GBCm-61">
          <mxGeometry relative="1" as="geometry" />
        </mxCell>
        <mxCell id="onJ9jWcFODIxRkG4GBCm-44" value="将标签明码解析出的客户code作为参数传递给知识产权查询方法" style="whiteSpace=wrap;html=1;rounded=0;" vertex="1" parent="1">
          <mxGeometry x="920" y="810" width="120" height="60" as="geometry" />
        </mxCell>
        <mxCell id="onJ9jWcFODIxRkG4GBCm-46" value="no" style="text;html=1;align=center;verticalAlign=middle;resizable=0;points=[];autosize=1;strokeColor=none;fillColor=none;" vertex="1" parent="1">
          <mxGeometry x="860" y="818" width="40" height="30" as="geometry" />
        </mxCell>
        <mxCell id="onJ9jWcFODIxRkG4GBCm-56" style="edgeStyle=orthogonalEdgeStyle;rounded=0;orthogonalLoop=1;jettySize=auto;html=1;entryX=0.5;entryY=0;entryDx=0;entryDy=0;exitX=0.5;exitY=1;exitDx=0;exitDy=0;" edge="1" parent="1" source="onJ9jWcFODIxRkG4GBCm-47" target="onJ9jWcFODIxRkG4GBCm-53">
          <mxGeometry relative="1" as="geometry">
            <mxPoint x="1040" y="1250" as="targetPoint" />
            <mxPoint x="1310" y="1150" as="sourcePoint" />
            <Array as="points">
              <mxPoint x="850" y="1160" />
              <mxPoint x="660" y="1160" />
            </Array>
          </mxGeometry>
        </mxCell>
        <mxCell id="onJ9jWcFODIxRkG4GBCm-47" value="[企业]" style="whiteSpace=wrap;html=1;rounded=0;" vertex="1" parent="1">
          <mxGeometry x="790" y="940" width="120" height="60" as="geometry" />
        </mxCell>
        <mxCell id="onJ9jWcFODIxRkG4GBCm-54" value="" style="edgeStyle=orthogonalEdgeStyle;rounded=0;orthogonalLoop=1;jettySize=auto;html=1;exitX=0.5;exitY=1;exitDx=0;exitDy=0;" edge="1" parent="1" source="onJ9jWcFODIxRkG4GBCm-49" target="onJ9jWcFODIxRkG4GBCm-53">
          <mxGeometry relative="1" as="geometry">
            <Array as="points">
              <mxPoint x="500" y="1160" />
              <mxPoint x="660" y="1160" />
            </Array>
          </mxGeometry>
        </mxCell>
        <mxCell id="onJ9jWcFODIxRkG4GBCm-49" value="[普通协会]" style="whiteSpace=wrap;html=1;rounded=0;" vertex="1" parent="1">
          <mxGeometry x="440" y="940" width="120" height="60" as="geometry" />
        </mxCell>
        <mxCell id="onJ9jWcFODIxRkG4GBCm-55" style="edgeStyle=orthogonalEdgeStyle;rounded=0;orthogonalLoop=1;jettySize=auto;html=1;entryX=0.5;entryY=0;entryDx=0;entryDy=0;" edge="1" parent="1" source="onJ9jWcFODIxRkG4GBCm-51" target="onJ9jWcFODIxRkG4GBCm-53">
          <mxGeometry relative="1" as="geometry" />
        </mxCell>
        <mxCell id="onJ9jWcFODIxRkG4GBCm-51" value="[种苗版协会]" style="whiteSpace=wrap;html=1;rounded=0;" vertex="1" parent="1">
          <mxGeometry x="600" y="1060" width="120" height="60" as="geometry" />
        </mxCell>
        <mxCell id="onJ9jWcFODIxRkG4GBCm-58" value="" style="edgeStyle=orthogonalEdgeStyle;rounded=0;orthogonalLoop=1;jettySize=auto;html=1;" edge="1" parent="1" source="onJ9jWcFODIxRkG4GBCm-53" target="onJ9jWcFODIxRkG4GBCm-57">
          <mxGeometry relative="1" as="geometry" />
        </mxCell>
        <mxCell id="onJ9jWcFODIxRkG4GBCm-53" value="查询绑定的知识产权类型和id" style="whiteSpace=wrap;html=1;rounded=0;" vertex="1" parent="1">
          <mxGeometry x="600" y="1190" width="120" height="60" as="geometry" />
        </mxCell>
        <mxCell id="onJ9jWcFODIxRkG4GBCm-60" value="" style="edgeStyle=orthogonalEdgeStyle;rounded=0;orthogonalLoop=1;jettySize=auto;html=1;entryX=0.5;entryY=0;entryDx=0;entryDy=0;" edge="1" parent="1" source="onJ9jWcFODIxRkG4GBCm-57" target="onJ9jWcFODIxRkG4GBCm-61">
          <mxGeometry relative="1" as="geometry">
            <mxPoint x="660" y="1420" as="targetPoint" />
          </mxGeometry>
        </mxCell>
        <mxCell id="onJ9jWcFODIxRkG4GBCm-57" value="将查询出来的信息作为参数传递给知识产权查询方法" style="whiteSpace=wrap;html=1;rounded=0;" vertex="1" parent="1">
          <mxGeometry x="600" y="1300" width="120" height="60" as="geometry" />
        </mxCell>
        <mxCell id="onJ9jWcFODIxRkG4GBCm-59" value="return&lt;div&gt;知识产权查询结果&lt;/div&gt;" style="whiteSpace=wrap;html=1;rounded=1;" vertex="1" parent="1">
          <mxGeometry x="600" y="1560" width="120" height="60" as="geometry" />
        </mxCell>
        <mxCell id="onJ9jWcFODIxRkG4GBCm-63" style="edgeStyle=orthogonalEdgeStyle;rounded=0;orthogonalLoop=1;jettySize=auto;html=1;" edge="1" parent="1" source="onJ9jWcFODIxRkG4GBCm-61" target="onJ9jWcFODIxRkG4GBCm-59">
          <mxGeometry relative="1" as="geometry" />
        </mxCell>
        <mxCell id="onJ9jWcFODIxRkG4GBCm-61" value="查询知识产权" style="rounded=0;whiteSpace=wrap;html=1;" vertex="1" parent="1">
          <mxGeometry x="600" y="1430" width="120" height="60" as="geometry" />
        </mxCell>
        <mxCell id="onJ9jWcFODIxRkG4GBCm-66" value="no" style="text;html=1;align=center;verticalAlign=middle;resizable=0;points=[];autosize=1;strokeColor=none;fillColor=none;" vertex="1" parent="1">
          <mxGeometry x="750" y="688" width="40" height="30" as="geometry" />
        </mxCell>
      </root>
    </mxGraphModel>
  </diagram>
</mxfile>
